<svg width="28.000000" height="28.000000" viewBox="0 0 28 28" fill="none" xmlns="http://www.w3.org/2000/svg" xmlns:xlink="http://www.w3.org/1999/xlink">
	<desc>
			Created with Pixso.
	</desc>
	<defs>
		<clipPath id="clip2_6289">
			<rect id="mdi-light:heart" rx="-0.500000" width="27.000000" height="27.000000" transform="translate(0.500000 0.500000)" fill="white" fill-opacity="0"/>
		</clipPath>
	</defs>
	<rect id="mdi-light:heart" rx="-0.500000" width="27.000000" height="27.000000" transform="translate(0.500000 0.500000)" fill="#FFFFFF" fill-opacity="0"/>
	<g clip-path="url(#clip2_6289)">
		<path id="Vector" d="M22.26 14.62L22.26 14.62C22.76 14.1 23.15 13.48 23.41 12.81C23.69 12.09 23.82 11.33 23.79 10.56C23.76 9.8 23.57 9.05 23.24 8.36C22.9 7.67 22.43 7.06 21.85 6.56C21.27 6.06 20.59 5.69 19.85 5.47C19.12 5.25 18.35 5.18 17.59 5.27C16.83 5.36 16.1 5.61 15.44 6C14.89 6.32 14.4 6.73 14 7.21C13.59 6.73 13.1 6.32 12.55 6C11.89 5.61 11.16 5.36 10.4 5.27C9.64 5.18 8.87 5.25 8.14 5.47C7.4 5.69 6.72 6.06 6.14 6.56C5.56 7.06 5.09 7.67 4.75 8.36C4.42 9.05 4.23 9.8 4.2 10.56C4.17 11.33 4.3 12.09 4.58 12.81C4.86 13.52 5.28 14.17 5.82 14.71L14 22.88L22.26 14.62ZM14 20.62L7.04 13.66L6.95 13.57C6.55 13.18 6.24 12.7 6.05 12.17C5.85 11.64 5.77 11.08 5.8 10.52C5.84 9.96 6 9.41 6.26 8.91C6.53 8.42 6.9 7.98 7.35 7.64C7.8 7.3 8.31 7.06 8.86 6.93C9.41 6.8 9.98 6.8 10.53 6.91C11.08 7.02 11.6 7.25 12.06 7.58C12.52 7.91 12.9 8.33 13.18 8.82L13.26 8.97L14.73 8.97L14.81 8.82C15.09 8.33 15.47 7.91 15.93 7.58C16.39 7.25 16.91 7.02 17.46 6.91C18.01 6.8 18.58 6.8 19.13 6.93C19.68 7.06 20.19 7.3 20.64 7.64C21.09 7.98 21.46 8.42 21.73 8.91C21.99 9.41 22.15 9.96 22.19 10.52C22.22 11.08 22.14 11.64 21.94 12.17C21.75 12.7 21.44 13.18 21.04 13.57L14 20.62Z" fill="#FAF6F2" fill-opacity="1.000000" fill-rule="evenodd"/>
	</g>
</svg>
